<?xml version="1.0" encoding="UTF-8"?>
<svg viewBox="0 0 48 48" xmlns="http://www.w3.org/2000/svg">
 <g transform="translate(0 -1004.4)">
  <path d="m5.1662 1005.3h37.668a4.1853 4.1853 0 0 1 4.1853 4.1853v37.668a4.1853 4.1853 0 0 1 -4.1853 4.1853h-37.668a4.1853 4.1853 0 0 1 -4.1853 -4.1853v-37.668a4.1853 4.1853 0 0 1 4.1853 -4.1853" fill="#f00" stroke="#f00" stroke-linecap="round" stroke-linejoin="round" stroke-width="1.9618"/>
  <path d="m42.585 1047.1-7.2119-8.3619-0.51047 0.4178 7.7224 7.9441zm-9.8656-9.5139 1.221 1.5152c1.0356 0.012 1.209-0.5532 1.5464-1.2778l-1.2828-1.6136c0.69867-0.9138 0.95169-1.8368 0.54968-2.2595l-11.744-13.223c-0.22025-0.5416-0.50901-1.0578-0.76569-1.5771-0.55891-0.6221-2.164 0.027-3.5844 1.4486s-2.1174 3.0784-1.5585 3.7006l1.4919 0.8061 11.932 12.829c0.83485 0.363 1.4074-0.039 2.1944-0.3483z" fill="#fff" stroke="#fff" stroke-width="2"/>
  <path d="m18.965 1021.3-9.9445-10.707" fill="#fff" stroke="#fff" stroke-width="2"/>
  <path transform="matrix(-.080203 -.083374 .083374 -.080203 20.187 1032.8)" d="m215.96 63.654a6.7088 26.516 0 1 1 -13.418 0 6.7088 26.516 0 1 1 13.418 0z" fill="#fff" stroke="#fff" stroke-linecap="square" stroke-width="17.288"/>
  <path d="m10.733 1032.1c-2.0638 0-3.7479 0.5613-3.7479 1.2493l0.02154 0.8831c0 0.6879 1.6841 1.2493 3.7479 1.2493s3.7263-0.5614 3.7263-1.2493l-0.02154-0.8831c0-0.688-1.6625-1.2493-3.7263-1.2493z" fill="#fff" stroke="#fff" stroke-linecap="square" stroke-width="1.3785"/>
  <path d="m19.823 1037.8c-2.1799 0-3.9588 0.593-3.9588 1.3196l0.02275 0.9329c0 0.7266 1.7788 1.3196 3.9588 1.3196s3.936-0.593 3.936-1.3196l-0.02275-0.9329c0-0.7266-1.7561-1.3196-3.936-1.3196z" fill="#fff" stroke="#fff" stroke-linecap="square" stroke-width="1.4561"/>
 </g>
</svg>
