<?xml version="1.0" encoding="utf-8"?>
<!-- Generator: Adobe Illustrator 19.2.1, SVG Export Plug-In . SVG Version: 6.00 Build 0)  -->
<!DOCTYPE svg PUBLIC "-//W3C//DTD SVG 1.1//EN" "http://www.w3.org/Graphics/SVG/1.1/DTD/svg11.dtd">
<svg version="1.1" id="Laag_1" xmlns="http://www.w3.org/2000/svg" xmlns:xlink="http://www.w3.org/1999/xlink" x="0px" y="0px"
	 viewBox="0 0 260.8 116.2" enable-background="new 0 0 260.8 116.2" xml:space="preserve">
<g>
	<path fill="#E30613" d="M201,81.6c0,11.5,10.1,20.8,22.6,20.8c12.5,0,22.6-9.3,22.6-20.8V38.1c0-11.5-10.1-20.8-22.6-20.8
		c-12.5,0-22.6,9.3-22.6,20.8V81.6z M238.6,40c0,8.3-6.7,14.9-14.9,14.9c-8.3,0-14.9-6.7-14.9-14.9c0-8.3,6.7-14.9,14.9-14.9
		C231.9,25,238.6,31.7,238.6,40z M228.1,62.9h8.2l0,20.4c0,5.7-5.6,10.3-12.6,10.3c-7,0-12.6-4.6-12.6-10.3V62.9h8.2l0,20.4
		c0,1.9,2,3.5,4.4,3.5c2.4,0,4.4-1.6,4.4-3.5L228.1,62.9z"/>
	<g>
		<path fill="#1D1D1B" d="M28.2,48.4c0,4.7-2.8,7.5-6.9,7.5c-4.2,0-6.7-3.2-6.7-7.2c0-4.2,2.7-7.4,6.9-7.4
			C25.9,41.2,28.2,44.4,28.2,48.4z M18,48.5c0,2.8,1.3,4.7,3.4,4.7c2.2,0,3.4-2.1,3.4-4.8c0-2.6-1.2-4.7-3.4-4.7
			C19.3,43.7,18,45.8,18,48.5z"/>
		<path fill="#1D1D1B" d="M30.9,48.8c0-1.3,0-2.5-0.1-3.4h2.8l0.1,1.4h0c0.8-1.1,1.9-1.7,3.4-1.7c2.2,0,4.3,2,4.3,5.2
			c0,3.7-2.4,5.5-4.7,5.5c-1.2,0-2.2-0.5-2.7-1.2h0v5.1h-3.2V48.8z M34.1,51.2c0,0.3,0,0.5,0.1,0.7c0.2,0.9,0.9,1.5,1.9,1.5
			c1.4,0,2.2-1.2,2.2-2.9c0-1.6-0.7-2.9-2.2-2.9c-0.9,0-1.7,0.7-1.9,1.6c0,0.2-0.1,0.4-0.1,0.6V51.2z"/>
		<path fill="#1D1D1B" d="M46.6,51.5c0.1,1.3,1.4,2,2.9,2c1.1,0,2-0.1,2.8-0.4l0.4,2.2c-1.1,0.4-2.3,0.7-3.7,0.7
			c-3.5,0-5.5-2-5.5-5.2c0-2.6,1.6-5.5,5.2-5.5c3.3,0,4.6,2.6,4.6,5.1c0,0.5-0.1,1-0.1,1.3H46.6z M50.4,49.3c0-0.8-0.3-2.1-1.8-2.1
			c-1.3,0-1.9,1.2-2,2.1H50.4z"/>
		<path fill="#1D1D1B" d="M55.9,48.6c0-1.3,0-2.4-0.1-3.3h2.8l0.1,1.4h0.1c0.4-0.7,1.4-1.7,3.2-1.7c2.1,0,3.7,1.4,3.7,4.4v6.1h-3.2
			v-5.7c0-1.3-0.5-2.2-1.6-2.2c-0.9,0-1.4,0.6-1.6,1.2c-0.1,0.2-0.1,0.5-0.1,0.8v5.9h-3.2V48.6z"/>
		<path fill="#1D1D1B" d="M76.6,41.4v8.1c0,2.5,0.9,3.7,2.6,3.7c1.7,0,2.6-1.2,2.6-3.7v-8.1h3.2v7.9c0,4.4-2.2,6.4-5.9,6.4
			c-3.6,0-5.6-2-5.6-6.5v-7.9H76.6z"/>
		<path fill="#1D1D1B" d="M88.2,48.6c0-1.3,0-2.4-0.1-3.3h2.8l0.1,1.4h0.1c0.4-0.7,1.4-1.7,3.2-1.7c2.1,0,3.7,1.4,3.7,4.4v6.1h-3.2
			v-5.7c0-1.3-0.5-2.2-1.6-2.2c-0.9,0-1.4,0.6-1.6,1.2c-0.1,0.2-0.1,0.5-0.1,0.8v5.9h-3.2V48.6z"/>
		<path fill="#1D1D1B" d="M104.5,42.5c0,0.9-0.7,1.6-1.7,1.6c-1,0-1.7-0.7-1.7-1.6c0-0.9,0.7-1.6,1.7-1.6
			C103.8,40.9,104.5,41.6,104.5,42.5z M101.2,55.6V45.3h3.2v10.3H101.2z"/>
		<path fill="#1D1D1B" d="M109.9,45.3l1.4,4.8c0.3,0.9,0.4,1.7,0.6,2.5h0.1c0.2-0.8,0.3-1.6,0.6-2.5l1.3-4.8h3.4l-3.8,10.3h-3.2
			l-3.7-10.3H109.9z"/>
		<path fill="#1D1D1B" d="M121.5,51.5c0.1,1.3,1.4,2,2.9,2c1.1,0,2-0.1,2.8-0.4l0.4,2.2c-1,0.4-2.3,0.7-3.7,0.7
			c-3.5,0-5.5-2-5.5-5.2c0-2.6,1.6-5.5,5.2-5.5c3.3,0,4.6,2.6,4.6,5.1c0,0.5-0.1,1-0.1,1.3H121.5z M125.2,49.3
			c0-0.8-0.3-2.1-1.8-2.1c-1.3,0-1.9,1.2-2,2.1H125.2z"/>
		<path fill="#1D1D1B" d="M130.7,48.7c0-1.5,0-2.5-0.1-3.4h2.7l0.1,1.9h0.1c0.5-1.5,1.8-2.1,2.8-2.1c0.3,0,0.4,0,0.7,0.1v3
			c-0.3,0-0.5-0.1-0.9-0.1c-1.2,0-2,0.6-2.2,1.6c0,0.2-0.1,0.5-0.1,0.7v5.2h-3.2V48.7z"/>
		<path fill="#1D1D1B" d="M139.3,52.8c0.6,0.4,1.8,0.8,2.8,0.8c1,0,1.4-0.3,1.4-0.8c0-0.5-0.3-0.8-1.5-1.2c-2.1-0.7-3-1.9-2.9-3.1
			c0-1.9,1.6-3.4,4.2-3.4c1.2,0,2.2,0.3,2.9,0.6l-0.5,2.2c-0.5-0.3-1.4-0.6-2.2-0.6c-0.8,0-1.2,0.3-1.2,0.8s0.4,0.8,1.7,1.2
			c2,0.7,2.8,1.7,2.8,3.2c0,1.9-1.5,3.3-4.4,3.3c-1.3,0-2.5-0.3-3.3-0.7L139.3,52.8z"/>
		<path fill="#1D1D1B" d="M152.4,42.5c0,0.9-0.7,1.6-1.7,1.6c-1,0-1.7-0.7-1.7-1.6c0-0.9,0.7-1.6,1.7-1.6S152.4,41.6,152.4,42.5z
			 M149.1,55.6V45.3h3.2v10.3H149.1z"/>
		<path fill="#1D1D1B" d="M159,42.5v2.8h2.3v2.4H159v3.7c0,1.2,0.3,1.8,1.3,1.8c0.4,0,0.7,0,0.9-0.1l0,2.4c-0.4,0.1-1.2,0.3-2.1,0.3
			c-1,0-1.9-0.4-2.4-0.9c-0.6-0.6-0.9-1.6-0.9-3v-4.2h-1.4v-2.4h1.4v-1.9L159,42.5z"/>
		<path fill="#1D1D1B" d="M166.2,51.5c0.1,1.3,1.4,2,2.9,2c1.1,0,2-0.1,2.8-0.4l0.4,2.2c-1.1,0.4-2.3,0.7-3.7,0.7
			c-3.5,0-5.5-2-5.5-5.2c0-2.6,1.6-5.5,5.2-5.5c3.3,0,4.6,2.6,4.6,5.1c0,0.5-0.1,1-0.1,1.3H166.2z M169.9,49.3
			c0-0.8-0.3-2.1-1.8-2.1c-1.3,0-1.9,1.2-2,2.1H169.9z"/>
		<path fill="#1D1D1B" d="M178.7,42.5c0,0.9-0.7,1.6-1.7,1.6c-1,0-1.7-0.7-1.7-1.6c0-0.9,0.7-1.6,1.7-1.6S178.7,41.6,178.7,42.5z
			 M175.4,55.6V45.3h3.2v10.3H175.4z"/>
		<path fill="#1D1D1B" d="M185.4,42.5v2.8h2.3v2.4h-2.3v3.7c0,1.2,0.3,1.8,1.3,1.8c0.4,0,0.7,0,0.9-0.1l0,2.4
			c-0.4,0.1-1.2,0.3-2.1,0.3c-1,0-1.9-0.4-2.4-0.9c-0.6-0.6-0.9-1.6-0.9-3v-4.2h-1.4v-2.4h1.4v-1.9L185.4,42.5z"/>
	</g>
	<g>
		<path fill="#E30613" d="M118.8,66l0.6,2.9c0.1,0.7,0.3,1.5,0.4,2.3h0c0.1-0.8,0.3-1.6,0.5-2.3l0.7-2.9h1.7l0.7,2.8
			c0.2,0.8,0.4,1.6,0.5,2.4h0c0.1-0.8,0.2-1.6,0.4-2.4L125,66h2.1l-2.1,7h-2l-0.7-2.4c-0.2-0.7-0.3-1.3-0.5-2.2h0
			c-0.1,0.9-0.3,1.5-0.4,2.2l-0.7,2.5h-2l-2-7H118.8z"/>
		<path fill="#E30613" d="M130.3,66l0.6,2.9c0.1,0.7,0.3,1.5,0.4,2.3h0c0.1-0.8,0.3-1.6,0.5-2.3l0.7-2.9h1.7l0.7,2.8
			c0.2,0.8,0.4,1.6,0.5,2.4h0c0.1-0.8,0.2-1.6,0.4-2.4l0.6-2.8h2.1l-2.1,7h-2l-0.7-2.4c-0.2-0.7-0.3-1.3-0.5-2.2h0
			c-0.1,0.9-0.3,1.5-0.4,2.2l-0.7,2.5h-2l-2-7H130.3z"/>
		<path fill="#E30613" d="M141.8,66l0.6,2.9c0.1,0.7,0.3,1.5,0.4,2.3h0c0.1-0.8,0.3-1.6,0.5-2.3l0.7-2.9h1.7l0.7,2.8
			c0.2,0.8,0.4,1.6,0.5,2.4h0c0.1-0.8,0.2-1.6,0.4-2.4L148,66h2.1l-2.1,7h-2l-0.7-2.4c-0.2-0.7-0.3-1.3-0.5-2.2h0
			c-0.1,0.9-0.3,1.5-0.4,2.2l-0.7,2.5h-2l-2-7H141.8z"/>
		<path fill="#E30613" d="M150.7,71.8c0-0.8,0.5-1.3,1.3-1.3c0.7,0,1.3,0.5,1.3,1.3c0,0.8-0.5,1.3-1.3,1.3
			C151.3,73.1,150.7,72.5,150.7,71.8z"/>
		<path fill="#E30613" d="M161.9,69.4c0,2.6-1.8,3.7-3.7,3.7c-2,0-3.6-1.3-3.6-3.6c0-2.3,1.5-3.7,3.7-3.7
			C160.5,65.8,161.9,67.3,161.9,69.4z M156.9,69.4c0,1.2,0.5,2.1,1.4,2.1c0.9,0,1.4-0.8,1.4-2.1c0-1-0.4-2.1-1.4-2.1
			C157.3,67.3,156.9,68.4,156.9,69.4z"/>
		<path fill="#E30613" d="M170.3,70.7c0,0.9,0,1.7,0.1,2.2h-1.9l-0.1-1h0c-0.3,0.4-0.9,1.1-2.2,1.1c-1.4,0-2.5-0.9-2.5-3V66h2.2v3.7
			c0,1,0.3,1.6,1.1,1.6c0.6,0,1-0.4,1.1-0.8c0.1-0.1,0.1-0.3,0.1-0.5V66h2.2V70.7z"/>
		<path fill="#E30613" d="M172.2,71.8c0-0.8,0.5-1.3,1.3-1.3c0.7,0,1.3,0.5,1.3,1.3c0,0.8-0.5,1.3-1.3,1.3
			C172.7,73.1,172.2,72.5,172.2,71.8z"/>
		<path fill="#E30613" d="M176.5,68.2c0-0.9,0-1.6-0.1-2.2h1.9l0.1,1h0c0.3-0.5,1-1.1,2.2-1.1c1.4,0,2.5,1,2.5,3v4.1h-2.2v-3.9
			c0-0.9-0.3-1.5-1.1-1.5c-0.6,0-1,0.4-1.1,0.8c-0.1,0.1-0.1,0.3-0.1,0.5v4h-2.2V68.2z"/>
		<path fill="#E30613" d="M185.2,62.8h2.2v10.1h-2.2V62.8z"/>
	</g>
</g>
</svg>
